<svg width="38" height="38" viewBox="0 0 38 38" fill="none" xmlns="http://www.w3.org/2000/svg">
<path d="M34.725 36H13.9C13.5618 36 13.2375 35.8657 12.9984 35.6266C12.7593 35.3875 12.625 35.0632 12.625 34.725V13.9C12.625 13.5618 12.7593 13.2375 12.9984 12.9984C13.2375 12.7593 13.5618 12.625 13.9 12.625H34.725C35.0632 12.625 35.3875 12.7593 35.6266 12.9984C35.8657 13.2375 36 13.5618 36 13.9V34.725C36 35.0632 35.8657 35.3875 35.6266 35.6266C35.3875 35.8657 35.0632 36 34.725 36Z" stroke="black" stroke-width="3.1875" stroke-linecap="round" stroke-linejoin="round"/>
<path d="M25.375 12.625V3.275C25.375 2.93685 25.2407 2.61255 25.0016 2.37344C24.7625 2.13433 24.4382 2 24.1 2H3.275C2.93685 2 2.61255 2.13433 2.37344 2.37344C2.13433 2.61255 2 2.93685 2 3.275V24.1C2 24.4382 2.13433 24.7625 2.37344 25.0016C2.61255 25.2407 2.93685 25.375 3.275 25.375H12.625" stroke="black" stroke-width="3.1875" stroke-linecap="round" stroke-linejoin="round"/>
</svg>
