<svg width="30" height="22" viewBox="0 0 30 22" fill="none" xmlns="http://www.w3.org/2000/svg">
<path d="M8.33333 0H3.33333C2.44928 0 1.60143 0.351189 0.976311 0.976311C0.35119 1.60143 0 2.44928 0 3.33333L0 8.33333H8.33333V0ZM26.6667 0H13.3333V8.33333H30V3.33333C30 2.44928 29.6488 1.60143 29.0237 0.976311C28.3986 0.351189 27.5507 0 26.6667 0ZM8.33333 21.6667H3.33333C2.44928 21.6667 1.60143 21.3155 0.976311 20.6904C0.35119 20.0652 0 19.2174 0 18.3333V13.3333H8.33333V21.6667ZM26.6667 21.6667H13.3333V13.3333H30V18.3333C30 19.2174 29.6488 20.0652 29.0237 20.6904C28.3986 21.3155 27.5507 21.6667 26.6667 21.6667Z" fill="#EF2B2D"/>
<path d="M12.0833 0H9.63L9.60917 9.58333H0V12.0833H9.60417L9.58333 21.6667H12.0833V12.0833H30V9.58333H12.0833V0Z" fill="#002868"/>
</svg>
